<svg width="15" height="15" viewBox="0 0 15 15" fill="none" xmlns="http://www.w3.org/2000/svg" style="color: rgb(206, 146, 216); height: 16px; width: 16px; margin-right: 6px;"><g fill="currentColor"><path d="M7.49977 4.0669C10.4914 4.0669 12.9165 3.1565 12.9165 2.03345C12.9165 0.910407 10.4914 0 7.49977 0C4.50817 0 2.08301 0.910407 2.08301 2.03345C2.08301 3.1565 4.50817 4.0669 7.49977 4.0669Z M2.08301 5.61708V2.90039C2.08301 2.90039 2.0998 4.91705 7.49977 4.91705C12.8999 4.91705 12.9165 2.90039 12.9165 2.90039V5.65048C12.9165 5.65048 12.8829 7.80021 7.48316 7.80021C2.08301 7.80021 2.08301 5.61708 2.08301 5.61708Z M2.08301 9.26729V6.55078C2.08301 6.55078 2.0998 8.56726 7.49977 8.56726C12.8999 8.56726 12.9165 6.55078 12.9165 6.55078V9.30069C12.9165 9.30069 12.8829 11.4508 7.48316 11.4508C2.08301 11.4508 2.08301 9.26729 2.08301 9.26729Z M2.08301 12.8167V10.0996C2.08301 10.0996 2.0998 12.1166 7.49977 12.1166C12.8999 12.1166 12.9165 10.0996 12.9165 10.0996V12.8499C12.9165 12.8499 12.8829 14.9996 7.48316 14.9996C2.08301 14.9998 2.08301 12.8167 2.08301 12.8167Z"></path></g></svg>