<svg width="30" height="30" fill="none" viewBox="0 0 30 30" xmlns="http://www.w3.org/2000/svg" style="color: rgb(255, 149, 31); height: 16px; width: 16px; margin-right: 6px;"><path d="m12.5 0c-6.88 0-12.5 5.62-12.5 12.5 0 6.92 5.62 12.5 12.5 12.5 1.74 0 3.38-.347 4.9-.979l-8.24-8.24c-.916-.916-1.39-2.11-1.39-3.31 0-1.2.475-2.4 1.39-3.32 1.83-1.83 4.8-1.83 6.63 0l8.21 8.21c.632-1.52.979-3.16.979-4.89.0316-6.92-5.59-12.5-12.5-12.5zm.00195 10.9c-.403 0-.805.151-1.11.451-.316.316-.475.695-.475 1.11 0 .41.159.79.475 1.11l13.2 13.2h-4.33c-.853 0-1.58.694-1.58 1.58 0 .884.694 1.58 1.58 1.58h8.08c.884 0 1.58-.695 1.58-1.58v-.00195-8.08c0-.853-.694-1.58-1.58-1.58-.884 0-1.58.694-1.58 1.58v4.33l-13.2-13.3c-.3-.3-.703-.451-1.11-.451z" clip-path="url(#a)" fill="currentColor"></path><defs><clipPath id="a"><rect width="30" height="30" fill="#fff"></rect></clipPath></defs></svg>