<svg width="30" height="30" viewBox="0 0 30 30" xmlns="http://www.w3.org/2000/svg" style="color: rgb(206, 146, 216); height: 16px; width: 16px; margin-right: 6px;"><path fill="currentColor" d="M28.5 16.5C29.25 16.5 30 15.75 30 15C30 14.1 29.25 13.5 28.5 13.5H25.5V10.5H28.5C29.25 10.5 30 9.75 30 9C30 8.1 29.25 7.5 28.5 7.5H25.5V6C25.5 5.1 24.75 4.5 24 4.5H22.5V1.5C22.5 0.6 21.75 0 21 0C20.25 0 19.5 0.6 19.5 1.5V4.5H16.5V1.5C16.5 0.6 15.75 0 15 0C14.25 0 13.5 0.6 13.5 1.5V4.5H10.5V1.5C10.5 0.6 9.75 0 9 0C8.25 0 7.5 0.6 7.5 1.5V4.5H6C5.25 4.5 4.5 5.1 4.5 6V7.5H1.5C0.75 7.5 0 8.1 0 9C0 9.75 0.75 10.5 1.5 10.5H4.5V13.5H1.5C0.75 13.5 0 14.1 0 15C0 15.75 0.75 16.5 1.5 16.5H4.5V19.5H1.5C0.75 19.5 0 20.1 0 21C0 21.75 0.75 22.5 1.5 22.5H4.5V24C4.5 24.75 5.25 25.5 6 25.5H7.5V28.5C7.5 29.25 8.25 30 9 30C9.75 30 10.5 29.25 10.5 28.5V25.5H13.5V28.5C13.5 29.25 14.25 30 15 30C15.75 30 16.5 29.25 16.5 28.5V25.5H19.5V28.5C19.5 29.25 20.25 30 21 30C21.75 30 22.5 29.25 22.5 28.5V25.5H24C24.75 25.5 25.5 24.75 25.5 24V22.5H28.5C29.25 22.5 30 21.75 30 21C30 20.1 29.25 19.5 28.5 19.5H25.5V16.5H28.5ZM22.5 22.5H7.5V7.5H22.5V22.5Z M 10.5 10.5 H 19.5 V 19.5 H 10.5 V10.5 Z"></path></svg>